<?xml version="1.0" standalone="no"?>
<!DOCTYPE svg PUBLIC "-//W3C//DTD SVG 20010904//EN"
 "http://www.w3.org/TR/2001/REC-SVG-20010904/DTD/svg10.dtd">
<svg version="1.0" xmlns="http://www.w3.org/2000/svg"
 width="512.000000pt" height="512.000000pt" viewBox="0 0 512.000000 512.000000"
 preserveAspectRatio="xMidYMid meet">
<metadata>
Created by potrace 1.14, written by Peter Selinger 2001-2017
</metadata>
<g transform="translate(0.000000,512.000000) scale(0.100000,-0.100000)"
fill="#000000" stroke="none">
<path d="M2875 4382 c-52 -3 -83 -20 -100 -52 -11 -21 -13 -328 -14 -1700 0
-921 0 -1685 -1 -1697 l0 -23 -200 0 -200 0 0 38 c-1 20 -1 440 -1 932 -1 985
2 949 -61 974 -49 19 -604 16 -635 -4 -47 -30 -46 -19 -46 -1006 l0 -934 -202
0 -202 0 0 1325 0 1325 -23 25 c-13 14 -37 29 -52 33 -51 13 -590 7 -616 -7
-54 -29 -52 15 -52 -1278 0 -659 0 -1248 0 -1310 l0 -112 -211 -3 -211 -3 -24
-28 c-26 -31 -30 -54 -13 -90 24 -52 -127 -49 2518 -49 1356 1 2482 1 2501 2
47 1 79 27 86 72 6 32 2 41 -24 68 l-30 30 -206 0 -206 0 -2 1221 -3 1221 -33
27 -32 28 -303 -2 c-166 -1 -310 -5 -319 -9 -9 -4 -25 -20 -34 -34 -16 -25
-17 -108 -17 -1239 l0 -1213 -202 0 -202 0 0 1699 c0 1568 -1 1702 -16 1725
-30 46 -45 48 -316 50 -141 0 -274 0 -296 -2z m446 -224 c0 -55 0 -3162 -1
-3205 l0 -33 -188 0 -189 0 0 1632 c0 898 2 1636 4 1641 2 4 87 7 189 7 l184
0 1 -42z m-2295 -721 c4 -3 7 -1804 4 -2420 l0 -97 -187 2 -188 3 -1 1255 c-1
1023 2 1256 12 1260 16 6 354 4 360 -3z m3440 -1365 l1 -1152 -156 -1 c-153
-1 -213 0 -219 5 -2 2 -4 2024 -2 2261 l0 40 188 0 187 0 1 -1153z m-2295 609
c3 -1 6 -397 6 -881 l0 -880 -189 0 -188 0 -1 33 c-5 371 1 1721 9 1726 8 5
338 7 363 2z"/>
</g>
</svg>
